<svg xmlns="http://www.w3.org/2000/svg" viewBox="0 0 64 64">
  <rect width="64" height="64" rx="13" fill="#7cb342"/>
  <g transform="translate(6.5 6.5) scale(1.133)"><g fill="none" fill-rule="evenodd" stroke="#000" stroke-width="1.5" stroke-linecap="round" stroke-linejoin="round"><path d="M22 10c10.5 1 16.5 8 16 29H15c0-9 10-6.5 8-21" fill="#fff"/><path d="M24 18c.38 2.91-5.55 7.37-8 9-3 2-2.82 4.34-5 4-1.042-.94 1.41-3.04 0-3-1 0 .19 1.23-1 2-1 0-4.003 1-4-4 0-2 6-12 6-12s1.89-1.9 2-3.5c-.73-.994-.5-2-.5-3 1-1 3 2.5 3 2.5h2s.78-1.992 2.5-3c1 0 1 3 1 3" fill="#fff"/><path d="M9.5 25.5a.5.5 0 1 1-1 0 .5.5 0 1 1 1 0zm5.433-9.75a.5 1.5 30 1 1-.866-.5.5 1.5 30 1 1 .866.5z" fill="#000"/><circle cx="14.7" cy="16" r="2.6" stroke-width="1"/><path d="M16.6 17.7C18.4 20.3 17.6 23.5 19.2 26.5 20 28 19.6 29.5 18.8 30.5" stroke-width=".55" stroke-dasharray="0.9 0.7"/></g></g>
</svg>
